<?xml version="1.0" encoding="UTF-8"?>
<!DOCTYPE svg PUBLIC "-//W3C//DTD SVG 1.0//EN" "http://www.w3.org/TR/2001/REC-SVG-20010904/DTD/svg10.dtd">
<svg id="kity_svg_6" xmlns="http://www.w3.org/2000/svg" xmlns:xlink="http://www.w3.org/1999/xlink" version="1.1" width="875" height="734" contenteditable="true" class="loading-target" style="font-family: Arial, &quot;Microsoft Yahei&quot;,  &quot;Heiti SC&quot;; background: #fff" viewBox="-26 -93 875 734"><defs id="kity_defs_7"><linearGradient id="kity_linearGradient_12" x1="0" y1="0" x2="0" y2="1"><stop id="kity_stop_13" offset="0" stop-color="rgb(255, 255, 255)"></stop><stop id="kity_stop_14" offset="1" stop-color="rgb(204, 204, 204)"></stop></linearGradient><marker id="kity_marker_2" orient="auto" refX="6" refY="0" viewBox="-7 -7 14 14" markerWidth="7" markerHeight="7" markerUnits="userSpaceOnUse"><path id="kity_path_3" fill="rgb(123, 115, 191)" stroke="none" d="M6,0A6,6,0,1,1,-6,0A6,6,0,1,1,6,0"></path></marker></defs><g id="kity_g_8" transform="translate(0.5, 0.5)"><g id="minder_1" text-rendering="geometricPrecision" transform="translate( 6 363 )"><g id="minder_connect_group_1"><path id="kity_path_34" fill="none" stroke="rgb(123, 115, 191)" stroke-width="1" d="M32 0A60,218,0,0,1,92 -218" transform="translate( 0 0 )" marker-end="url(#kity_marker_2)"></path><path id="kity_path_36" fill="none" stroke="rgb(123, 115, 191)" stroke-width="1" d="M180,-218C188,-218,188,-423,196,-423" transform="translate( 0 0 )"></path><path id="kity_path_38" fill="none" stroke="rgb(123, 115, 191)" stroke-width="1" d="M384,-423C392,-423,392,-423,400,-423" transform="translate( 0 0 )"></path><path id="kity_path_40" fill="none" stroke="rgb(123, 115, 191)" stroke-width="1" d="M180,-218C188,-218,188,-350,196,-350" transform="translate( 0 0 )"></path><path id="kity_path_42" fill="none" stroke="rgb(123, 115, 191)" stroke-width="1" d="M279,-350C287,-350,287,-393,295,-393" transform="translate( 0 0 )"></path><path id="kity_path_44" fill="none" stroke="rgb(123, 115, 191)" stroke-width="1" d="M279,-350C287,-350,287,-367,295,-367" transform="translate( 0 0 )"></path><path id="kity_path_46" fill="none" stroke="rgb(123, 115, 191)" stroke-width="1" d="M279,-350C287,-350,287,-341,295,-341" transform="translate( 0 0 )"></path><path id="kity_path_48" fill="none" stroke="rgb(123, 115, 191)" stroke-width="1" d="M279,-350C287,-350,287,-306,295,-306" transform="translate( 0 0 )"></path><path id="kity_path_50" fill="none" stroke="rgb(123, 115, 191)" stroke-width="1" d="M463,-306C471,-306,471,-306,479,-306" transform="translate( 0 0 )"></path><path id="kity_path_52" fill="none" stroke="rgb(123, 115, 191)" stroke-width="1" d="M180,-218C188,-218,188,-167,196,-167" transform="translate( 0 0 )"></path><path id="kity_path_54" fill="none" stroke="rgb(123, 115, 191)" stroke-width="1" d="M340,-167C348,-167,348,-210,356,-210" transform="translate( 0 0 )"></path><path id="kity_path_56" fill="none" stroke="rgb(123, 115, 191)" stroke-width="1" d="M443,-210C451,-210,451,-262,459,-262" transform="translate( 0 0 )"></path><path id="kity_path_58" fill="none" stroke="rgb(123, 115, 191)" stroke-width="1" d="M443,-210C451,-210,451,-227,459,-227" transform="translate( 0 0 )"></path><path id="kity_path_60" fill="none" stroke="rgb(123, 115, 191)" stroke-width="1" d="M443,-210C451,-210,451,-201,459,-201" transform="translate( 0 0 )"></path><path id="kity_path_62" fill="none" stroke="rgb(123, 115, 191)" stroke-width="1" d="M443,-210C451,-210,451,-175,459,-175" transform="translate( 0 0 )"></path><path id="kity_path_64" fill="none" stroke="rgb(123, 115, 191)" stroke-width="1" d="M443,-210C451,-210,451,-149,459,-149" transform="translate( 0 0 )"></path><path id="kity_path_66" fill="none" stroke="rgb(123, 115, 191)" stroke-width="1" d="M340,-167C348,-167,348,-123,356,-123" transform="translate( 0 0 )"></path><path id="kity_path_68" fill="none" stroke="rgb(123, 115, 191)" stroke-width="1" d="M180,-218C188,-218,188,-13,196,-13" transform="translate( 0 0 )"></path><path id="kity_path_70" fill="none" stroke="rgb(123, 115, 191)" stroke-width="1" d="M255,-13C263,-13,263,-84,271,-84" transform="translate( 0 0 )"></path><path id="kity_path_72" fill="none" stroke="rgb(123, 115, 191)" stroke-width="1" d="M329,-84C337,-84,337,-97,345,-97" transform="translate( 0 0 )"></path><path id="kity_path_74" fill="none" stroke="rgb(123, 115, 191)" stroke-width="1" d="M329,-84C337,-84,337,-71,345,-71" transform="translate( 0 0 )"></path><path id="kity_path_76" fill="none" stroke="rgb(123, 115, 191)" stroke-width="1" d="M255,-13C263,-13,263,-32,271,-32" transform="translate( 0 0 )"></path><path id="kity_path_78" fill="none" stroke="rgb(123, 115, 191)" stroke-width="1" d="M329,-32C337,-32,337,-45,345,-45" transform="translate( 0 0 )"></path><path id="kity_path_80" fill="none" stroke="rgb(123, 115, 191)" stroke-width="1" d="M329,-32C337,-32,337,-19,345,-19" transform="translate( 0 0 )"></path><path id="kity_path_82" fill="none" stroke="rgb(123, 115, 191)" stroke-width="1" d="M379,-19C387,-19,387,-19,395,-19" transform="translate( 0 0 )"></path><path id="kity_path_84" fill="none" stroke="rgb(123, 115, 191)" stroke-width="1" d="M255,-13C263,-13,263,7,271,7" transform="translate( 0 0 )"></path><path id="kity_path_86" fill="none" stroke="rgb(123, 115, 191)" stroke-width="1" d="M514,7C522,7,522,7,530,7" transform="translate( 0 0 )"></path><path id="kity_path_88" fill="none" stroke="rgb(123, 115, 191)" stroke-width="1" d="M255,-13C263,-13,263,33,271,33" transform="translate( 0 0 )"></path><path id="kity_path_90" fill="none" stroke="rgb(123, 115, 191)" stroke-width="1" d="M413,33C421,33,421,33,429,33" transform="translate( 0 0 )"></path><path id="kity_path_92" fill="none" stroke="rgb(123, 115, 191)" stroke-width="1" d="M255,-13C263,-13,263,59,271,59" transform="translate( 0 0 )"></path><path id="kity_path_94" fill="none" stroke="rgb(123, 115, 191)" stroke-width="1" d="M464,59C472,59,472,59,480,59" transform="translate( 0 0 )"></path><path id="kity_path_96" fill="none" stroke="rgb(123, 115, 191)" stroke-width="1" d="M32 0A60,106,0,0,0,92 106" transform="translate( 0 0 )" marker-end="url(#kity_marker_2)"></path><path id="kity_path_98" fill="none" stroke="rgb(123, 115, 191)" stroke-width="1" d="M162,106C170,106,170,93,178,93" transform="translate( 0 0 )"></path><path id="kity_path_100" fill="none" stroke="rgb(123, 115, 191)" stroke-width="1" d="M162,106C170,106,170,119,178,119" transform="translate( 0 0 )"></path><path id="kity_path_102" fill="none" stroke="rgb(123, 115, 191)" stroke-width="1" d="M332,119C340,119,340,119,348,119" transform="translate( 0 0 )"></path><path id="kity_path_104" fill="none" stroke="rgb(123, 115, 191)" stroke-width="1" d="M32 0A60,218,0,0,0,92 218" transform="translate( 0 0 )" marker-end="url(#kity_marker_2)"></path><path id="kity_path_106" fill="none" stroke="rgb(123, 115, 191)" stroke-width="1" d="M162,218C170,218,170,188,178,188" transform="translate( 0 0 )"></path><path id="kity_path_108" fill="none" stroke="rgb(123, 115, 191)" stroke-width="1" d="M476,188C484,188,484,153,492,153" transform="translate( 0 0 )"></path><path id="kity_path_110" fill="none" stroke="rgb(123, 115, 191)" stroke-width="1" d="M476,188C484,188,484,179,492,179" transform="translate( 0 0 )"></path><path id="kity_path_112" fill="none" stroke="rgb(123, 115, 191)" stroke-width="1" d="M476,188C484,188,484,214,492,214" transform="translate( 0 0 )"></path><path id="kity_path_3560" fill="none" stroke="rgb(123, 115, 191)" stroke-width="1" d="M162,218C170,218,170,249,178,249" transform="translate( 0 0 )"></path></g><g id="minder_node_1" transform="matrix( 1 0 0 1 0 0 )"><path id="kity_path_2468" fill="rgba(0, 0, 0, .25)" stroke="none" d="M-1,-12h106a5,5,0,0,1,5,5v24a5,5,0,0,1,-5,5h-106a5,5,0,0,1,-5,-5v-24a5,5,0,0,1,5,-5z" display="none"></path><path id="node_outline_1" fill="rgb(123, 115, 191)" stroke="rgb(123, 115, 191)" d="M-7,-14h78a5,5,0,0,1,5,5v18a5,5,0,0,1,-5,5h-78a5,5,0,0,1,-5,-5v-18a5,5,0,0,1,5,-5z" stroke-width="3"></path><g id="node_text_1" transform="translate( 0 -2.4 )" fill="white" style="cursor: default;"><text id="kity_text_23" text-rendering="inherit" dominant-baseline="text-before-edge" dy="0" font-size="16" y="-8" font-weight="bold">开发流程</text></g></g><g id="kity_g_15"><path id="kity_path_16" fill="none" stroke="none" d="M0,0h0v0h0z"></path></g><g id="kity_g_17"><path id="kity_path_18" fill="none" stroke="none" d="M0,0h0v0h0z"></path><path id="kity_path_19" fill="none" stroke="none"></path></g><g id="minder_node_5" transform="matrix( 1 0 0 1 226 -423 )"><g id="node_expander_2" transform="translate( -36 0 )" style="cursor: pointer;"><path id="kity_path_258" fill="white" stroke="gray" d="M6,0A6,6,0,1,1,-6,0A6,6,0,1,1,6,0"></path><path id="kity_path_259" fill="none" stroke="gray" d="M-4.5,0L4.5,0"></path></g><path id="node_outline_3" fill="transparent" stroke="none" d="M-25,-13h178a5,5,0,0,1,5,5v16a5,5,0,0,1,-5,5h-178a5,5,0,0,1,-5,-5v-16a5,5,0,0,1,5,-5z"></path><g id="node_text_3" transform="translate( 0 -1.7999999999999998 )" fill="black"><text id="kity_text_116" text-rendering="inherit" dominant-baseline="text-before-edge" dy="0" font-size="12" y="-6">基于dev创建自己的开发分支</text></g><g id="node_priority_1" transform="translate( -25 -10 )"><path id="kity_path_196" fill="#840023" stroke="none" d="M0,13c0,3.866,3.134,7,7,7h6c3.866,0,7-3.134,7-7V7H0V13z" transform="translate( 0.5 0.5 )"></path><path id="kity_path_197" fill="#FF1200" stroke="none" d="M20,10c0,3.866-3.134,7-7,7H7c-3.866,0-7-3.134-7-7V7c0-3.866,3.134-7,7-7h6c3.866,0,7,3.134,7,7V10z" opacity="0.8" transform="translate( 0.5 0.5 )"></path><text id="kity_text_198" text-rendering="geometricPrecision" x="9.5" y="8.5" text-anchor="middle" font-style="italic" font-size="14" fill="white" dy="5.5">1</text></g></g><g id="minder_node_6" transform="matrix( 1 0 0 1 405 -423 )"><g id="node_expander_1" transform="translate( -11 0 )" style="cursor: pointer;" display="none"><path id="kity_path_255" fill="white" stroke="gray" d="M6,0A6,6,0,1,1,-6,0A6,6,0,1,1,6,0"></path><path id="kity_path_256" fill="none" stroke="gray"></path></g><path id="node_outline_2" fill="transparent" stroke="none" d="M0,-9h122a5,5,0,0,1,5,5v8a5,5,0,0,1,-5,5h-122a5,5,0,0,1,-5,-5v-8a5,5,0,0,1,5,-5z"></path><g id="node_text_2" transform="translate( 0 -1.7999999999999998 )" fill="black"><text id="kity_text_114" text-rendering="inherit" dominant-baseline="text-before-edge" dy="0" font-size="12" y="-6">git co -b [dev-new-1]</text></g></g><g id="minder_node_7" transform="matrix( 1 0 0 1 226 -350 )"><g id="node_expander_8" transform="translate( -36 0 )" style="cursor: pointer;"><path id="kity_path_276" fill="white" stroke="gray" d="M6,0A6,6,0,1,1,-6,0A6,6,0,1,1,6,0"></path><path id="kity_path_277" fill="none" stroke="gray" d="M-4.5,0L4.5,0"></path></g><path id="node_outline_9" fill="transparent" stroke="none" d="M-25,-13h73a5,5,0,0,1,5,5v16a5,5,0,0,1,-5,5h-73a5,5,0,0,1,-5,-5v-16a5,5,0,0,1,5,-5z" stroke-width="3"></path><g id="node_text_9" transform="translate( 0 -1.7999999999999998 )" fill="black" style="cursor: default;"><text id="kity_text_128" text-rendering="inherit" dominant-baseline="text-before-edge" dy="0" font-size="12" y="-6">提交代码</text></g><g id="node_priority_2" transform="translate( -25 -10 )"><path id="kity_path_201" fill="#01467F" stroke="none" d="M0,13c0,3.866,3.134,7,7,7h6c3.866,0,7-3.134,7-7V7H0V13z" transform="translate( 0.5 0.5 )"></path><path id="kity_path_202" fill="#0074FF" stroke="none" d="M20,10c0,3.866-3.134,7-7,7H7c-3.866,0-7-3.134-7-7V7c0-3.866,3.134-7,7-7h6c3.866,0,7,3.134,7,7V10z" opacity="0.8" transform="translate( 0.5 0.5 )"></path><text id="kity_text_203" text-rendering="geometricPrecision" x="9.5" y="8.5" text-anchor="middle" font-style="italic" font-size="14" fill="white" dy="5.5">2</text></g></g><g id="minder_node_8" transform="matrix( 1 0 0 1 300 -393 )"><g id="node_expander_3" transform="translate( -11 0 )" style="cursor: pointer;" display="none"><path id="kity_path_261" fill="white" stroke="gray" d="M6,0A6,6,0,1,1,-6,0A6,6,0,1,1,6,0"></path><path id="kity_path_262" fill="none" stroke="gray"></path></g><path id="node_outline_4" fill="transparent" stroke="none" d="M0,-9h140a5,5,0,0,1,5,5v8a5,5,0,0,1,-5,5h-140a5,5,0,0,1,-5,-5v-8a5,5,0,0,1,5,-5z" stroke-width="3"></path><g id="node_text_4" transform="translate( 0 -1.7999999999999998 )" fill="black" style="cursor: default;"><text id="kity_text_118" text-rendering="inherit" dominant-baseline="text-before-edge" dy="0" font-size="12" y="-6">git st 确定你本地所有修改</text></g></g><g id="minder_node_9" transform="matrix( 1 0 0 1 300 -367 )"><g id="node_expander_4" transform="translate( -11 0 )" style="cursor: pointer;" display="none"><path id="kity_path_264" fill="white" stroke="gray" d="M6,0A6,6,0,1,1,-6,0A6,6,0,1,1,6,0"></path><path id="kity_path_265" fill="none" stroke="gray"></path></g><path id="node_outline_5" fill="white" stroke="none" d="M0,-9h398a5,5,0,0,1,5,5v8a5,5,0,0,1,-5,5h-398a5,5,0,0,1,-5,-5v-8a5,5,0,0,1,5,-5z"></path><g id="node_text_5" transform="translate( 0 -1.7999999999999998 )" fill="#e75d66"><text id="kity_text_120" text-rendering="inherit" dominant-baseline="text-before-edge" dy="0" font-size="12" y="-6">git add . &#xa0;-A (注意: 这条命令会把本地所有修改都提交【包括增删改操作】)</text></g></g><g id="minder_node_10" transform="matrix( 1 0 0 1 300 -341 )"><g id="node_expander_5" transform="translate( -11 0 )" style="cursor: pointer;" display="none"><path id="kity_path_267" fill="white" stroke="gray" d="M6,0A6,6,0,1,1,-6,0A6,6,0,1,1,6,0"></path><path id="kity_path_268" fill="none" stroke="gray"></path></g><path id="node_outline_6" fill="transparent" stroke="none" d="M0,-9h485a5,5,0,0,1,5,5v8a5,5,0,0,1,-5,5h-485a5,5,0,0,1,-5,-5v-8a5,5,0,0,1,5,-5z"></path><g id="node_text_6" transform="translate( 0 -1.7999999999999998 )" fill="black"><text id="kity_text_122" text-rendering="inherit" dominant-baseline="text-before-edge" dy="0" font-size="12" y="-6">git commit -m '新功能提交' (同一个功能本地多次提交请使用 --amend 参数合并本地记录)</text></g></g><g id="minder_node_11" transform="matrix( 1 0 0 1 300 -306 )"><g id="node_expander_7" transform="translate( -11 0 )" style="cursor: pointer;"><path id="kity_path_273" fill="white" stroke="gray" d="M6,0A6,6,0,1,1,-6,0A6,6,0,1,1,6,0"></path><path id="kity_path_274" fill="none" stroke="gray" d="M-4.5,0L4.5,0"></path></g><path id="node_outline_8" fill="transparent" stroke="none" d="M0,-9h158a5,5,0,0,1,5,5v8a5,5,0,0,1,-5,5h-158a5,5,0,0,1,-5,-5v-8a5,5,0,0,1,5,-5z" stroke-width="3"></path><g id="node_text_8" transform="translate( 0 -1.7999999999999998 )" fill="black" style="cursor: default;"><text id="kity_text_126" text-rendering="inherit" dominant-baseline="text-before-edge" dy="0" font-size="12" y="-6">git push origin [dev-new-1]</text></g></g><g id="minder_node_13" transform="matrix( 1 0 0 1 226 -167 )"><g id="node_expander_16" transform="translate( -36 0 )" style="cursor: pointer;"><path id="kity_path_300" fill="white" stroke="gray" d="M6,0A6,6,0,1,1,-6,0A6,6,0,1,1,6,0"></path><path id="kity_path_301" fill="none" stroke="gray" d="M-4.5,0L4.5,0"></path></g><path id="node_outline_17" fill="transparent" stroke="none" d="M-25,-18h134a5,5,0,0,1,5,5v26a5,5,0,0,1,-5,5h-134a5,5,0,0,1,-5,-5v-26a5,5,0,0,1,5,-5z"></path><g id="node_text_17" transform="translate( 0 -1.7999999999999998 )" fill="black"><text id="kity_text_144" text-rendering="inherit" dominant-baseline="text-before-edge" dy="0" font-size="12" y="-15">打包，部署测试</text><text id="kity_text_145" text-rendering="inherit" dominant-baseline="text-before-edge" dy="0" font-size="12" y="3">(ssh 10.200.51.142)</text></g><g id="node_priority_3" transform="translate( -25 -10 )"><path id="kity_path_206" fill="#006300" stroke="none" d="M0,13c0,3.866,3.134,7,7,7h6c3.866,0,7-3.134,7-7V7H0V13z" transform="translate( 0.5 0.5 )"></path><path id="kity_path_207" fill="#00AF00" stroke="none" d="M20,10c0,3.866-3.134,7-7,7H7c-3.866,0-7-3.134-7-7V7c0-3.866,3.134-7,7-7h6c3.866,0,7,3.134,7,7V10z" opacity="0.8" transform="translate( 0.5 0.5 )"></path><text id="kity_text_208" text-rendering="geometricPrecision" x="9.5" y="8.5" text-anchor="middle" font-style="italic" font-size="14" fill="white" dy="5.5">3</text></g></g><g id="minder_node_14" transform="matrix( 1 0 0 1 361 -210 )"><g id="node_expander_14" transform="translate( -11 0 )" style="cursor: pointer;"><path id="kity_path_294" fill="white" stroke="gray" d="M6,0A6,6,0,1,1,-6,0A6,6,0,1,1,6,0"></path><path id="kity_path_295" fill="none" stroke="gray" d="M-4.5,0L4.5,0"></path></g><path id="node_outline_15" fill="transparent" stroke="none" d="M0,-9h77a5,5,0,0,1,5,5v8a5,5,0,0,1,-5,5h-77a5,5,0,0,1,-5,-5v-8a5,5,0,0,1,5,-5z"></path><g id="node_text_15" transform="translate( 0 -1.7999999999999998 )" fill="black"><text id="kity_text_140" text-rendering="inherit" dominant-baseline="text-before-edge" dy="0" font-size="12" y="-6">打包/发布测试</text></g></g><g id="minder_node_16" transform="matrix( 1 0 0 1 464 -227 )"><g id="node_expander_10" transform="translate( -11 0 )" style="cursor: pointer;" display="none"><path id="kity_path_282" fill="white" stroke="gray" d="M6,0A6,6,0,1,1,-6,0A6,6,0,1,1,6,0"></path><path id="kity_path_283" fill="none" stroke="gray"></path></g><path id="node_outline_11" fill="transparent" stroke="none" d="M0,-9h321a5,5,0,0,1,5,5v8a5,5,0,0,1,-5,5h-321a5,5,0,0,1,-5,-5v-8a5,5,0,0,1,5,-5z"></path><g id="node_text_11" transform="translate( 0 -1.7999999999999998 )" fill="black"><text id="kity_text_132" text-rendering="inherit" dominant-baseline="text-before-edge" dy="0" font-size="12" y="-6">拉取分支: git co [dev-new-1] (日常测试checkout dev打包)</text></g></g><g id="minder_node_17" transform="matrix( 1 0 0 1 464 -201 )"><g id="node_expander_11" transform="translate( -11 0 )" style="cursor: pointer;" display="none"><path id="kity_path_285" fill="white" stroke="gray" d="M6,0A6,6,0,1,1,-6,0A6,6,0,1,1,6,0"></path><path id="kity_path_286" fill="none" stroke="gray"></path></g><path id="node_outline_12" fill="transparent" stroke="none" d="M0,-9h64a5,5,0,0,1,5,5v8a5,5,0,0,1,-5,5h-64a5,5,0,0,1,-5,-5v-8a5,5,0,0,1,5,-5z"></path><g id="node_text_12" transform="translate( 0 -1.7999999999999998 )" fill="black"><text id="kity_text_134" text-rendering="inherit" dominant-baseline="text-before-edge" dy="0" font-size="12" y="-6">更新: git up</text></g></g><g id="minder_node_18" transform="matrix( 1 0 0 1 464 -175 )"><g id="node_expander_12" transform="translate( -11 0 )" style="cursor: pointer;" display="none"><path id="kity_path_288" fill="white" stroke="gray" d="M6,0A6,6,0,1,1,-6,0A6,6,0,1,1,6,0"></path><path id="kity_path_289" fill="none" stroke="gray"></path></g><path id="node_outline_13" fill="transparent" stroke="none" d="M0,-9h90a5,5,0,0,1,5,5v8a5,5,0,0,1,-5,5h-90a5,5,0,0,1,-5,-5v-8a5,5,0,0,1,5,-5z"></path><g id="node_text_13" transform="translate( 0 -1.7999999999999998 )" fill="black"><text id="kity_text_136" text-rendering="inherit" dominant-baseline="text-before-edge" dy="0" font-size="12" y="-6">打包: git release</text></g></g><g id="minder_node_19" transform="matrix( 1 0 0 1 464 -149 )"><g id="node_expander_13" transform="translate( -11 0 )" style="cursor: pointer;" display="none"><path id="kity_path_291" fill="white" stroke="gray" d="M6,0A6,6,0,1,1,-6,0A6,6,0,1,1,6,0"></path><path id="kity_path_292" fill="none" stroke="gray"></path></g><path id="node_outline_14" fill="transparent" stroke="none" d="M0,-9h332a5,5,0,0,1,5,5v8a5,5,0,0,1,-5,5h-332a5,5,0,0,1,-5,-5v-8a5,5,0,0,1,5,-5z"></path><g id="node_text_14" transform="translate( 0 -1.7999999999999998 )" fill="black"><text id="kity_text_138" text-rendering="inherit" dominant-baseline="text-before-edge" dy="0" font-size="12" y="-6">分发: git deploy (输入目标环境ip地址即可, 如 10.200.51.223)</text></g></g><g id="minder_node_20" transform="matrix( 1 0 0 1 361 -123 )"><g id="node_expander_15" transform="translate( -11 0 )" style="cursor: pointer;" display="none"><path id="kity_path_297" fill="white" stroke="gray" d="M6,0A6,6,0,1,1,-6,0A6,6,0,1,1,6,0"></path><path id="kity_path_298" fill="none" stroke="gray"></path></g><path id="node_outline_16" fill="transparent" stroke="none" d="M0,-9h457a5,5,0,0,1,5,5v8a5,5,0,0,1,-5,5h-457a5,5,0,0,1,-5,-5v-8a5,5,0,0,1,5,-5z"></path><g id="node_text_16" transform="translate( 0 -1.7999999999999998 )" fill="#e75d66"><text id="kity_text_142" text-rendering="inherit" dominant-baseline="text-before-edge" dy="0" font-size="12" y="-6">合并开发分支&#xa0;&#xa0;[dev-new-1]&#xa0;&#xa0;到 dev 分支，打包（非日常上线的分支禁止合并到dev）</text></g></g><g id="minder_node_21" transform="matrix( 1 0 0 1 226 -13 )"><g id="node_expander_30" transform="translate( -36 0 )" style="cursor: pointer;"><path id="kity_path_342" fill="white" stroke="gray" d="M6,0A6,6,0,1,1,-6,0A6,6,0,1,1,6,0"></path><path id="kity_path_343" fill="none" stroke="gray" d="M-4.5,0L4.5,0"></path></g><path id="node_outline_31" fill="transparent" stroke="none" d="M-25,-13h49a5,5,0,0,1,5,5v16a5,5,0,0,1,-5,5h-49a5,5,0,0,1,-5,-5v-16a5,5,0,0,1,5,-5z"></path><g id="node_text_31" transform="translate( 0 -1.7999999999999998 )" fill="black"><text id="kity_text_173" text-rendering="inherit" dominant-baseline="text-before-edge" dy="0" font-size="12" y="-6">上线</text></g><g id="node_priority_4" transform="translate( -25 -10 )"><path id="kity_path_211" fill="#B25000" stroke="none" d="M0,13c0,3.866,3.134,7,7,7h6c3.866,0,7-3.134,7-7V7H0V13z" transform="translate( 0.5 0.5 )"></path><path id="kity_path_212" fill="#FF962E" stroke="none" d="M20,10c0,3.866-3.134,7-7,7H7c-3.866,0-7-3.134-7-7V7c0-3.866,3.134-7,7-7h6c3.866,0,7,3.134,7,7V10z" opacity="0.8" transform="translate( 0.5 0.5 )"></path><text id="kity_text_213" text-rendering="geometricPrecision" x="9.5" y="8.5" text-anchor="middle" font-style="italic" font-size="14" fill="white" dy="5.5">4</text></g></g><g id="minder_node_22" transform="matrix( 1 0 0 1 276 -84 )"><g id="node_expander_19" transform="translate( -11 0 )" style="cursor: pointer;"><path id="kity_path_309" fill="white" stroke="gray" d="M6,0A6,6,0,1,1,-6,0A6,6,0,1,1,6,0"></path><path id="kity_path_310" fill="none" stroke="gray" d="M-4.5,0L4.5,0"></path></g><path id="node_outline_20" fill="transparent" stroke="none" d="M0,-9h48a5,5,0,0,1,5,5v8a5,5,0,0,1,-5,5h-48a5,5,0,0,1,-5,-5v-8a5,5,0,0,1,5,-5z"></path><g id="node_text_20" transform="translate( 0 -1.7999999999999998 )" fill="black"><text id="kity_text_151" text-rendering="inherit" dominant-baseline="text-before-edge" dy="0" font-size="12" y="-6">日常上线</text></g></g><g id="minder_node_23" transform="matrix( 1 0 0 1 350 -97 )"><g id="node_expander_17" transform="translate( -11 0 )" style="cursor: pointer;" display="none"><path id="kity_path_303" fill="white" stroke="gray" d="M6,0A6,6,0,1,1,-6,0A6,6,0,1,1,6,0"></path><path id="kity_path_304" fill="none" stroke="gray"></path></g><path id="node_outline_18" fill="transparent" stroke="none" d="M0,-9h182a5,5,0,0,1,5,5v8a5,5,0,0,1,-5,5h-182a5,5,0,0,1,-5,-5v-8a5,5,0,0,1,5,-5z"></path><g id="node_text_18" transform="translate( 0 -1.7999999999999998 )" fill="black"><text id="kity_text_147" text-rendering="inherit" dominant-baseline="text-before-edge" dy="0" font-size="12" y="-6">合并 dev 分支到 master 完成打包</text></g></g><g id="minder_node_24" transform="matrix( 1 0 0 1 350 -71 )"><g id="node_expander_18" transform="translate( -11 0 )" style="cursor: pointer;" display="none"><path id="kity_path_306" fill="white" stroke="gray" d="M6,0A6,6,0,1,1,-6,0A6,6,0,1,1,6,0"></path><path id="kity_path_307" fill="none" stroke="gray"></path></g><path id="node_outline_19" fill="transparent" stroke="none" d="M0,-9h180a5,5,0,0,1,5,5v8a5,5,0,0,1,-5,5h-180a5,5,0,0,1,-5,-5v-8a5,5,0,0,1,5,-5z"></path><g id="node_text_19" transform="translate( 0 -1.7999999999999998 )" fill="black"><text id="kity_text_149" text-rendering="inherit" dominant-baseline="text-before-edge" dy="0" font-size="12" y="-6">每周二、周四，随大版本一同上线</text></g></g><g id="minder_node_25" transform="matrix( 1 0 0 1 276 -32 )"><g id="node_expander_23" transform="translate( -11 0 )" style="cursor: pointer;"><path id="kity_path_321" fill="white" stroke="gray" d="M6,0A6,6,0,1,1,-6,0A6,6,0,1,1,6,0"></path><path id="kity_path_322" fill="none" stroke="gray" d="M-4.5,0L4.5,0"></path></g><path id="node_outline_24" fill="transparent" stroke="none" d="M0,-9h48a5,5,0,0,1,5,5v8a5,5,0,0,1,-5,5h-48a5,5,0,0,1,-5,-5v-8a5,5,0,0,1,5,-5z"></path><g id="node_text_24" transform="translate( 0 -1.7999999999999998 )" fill="black"><text id="kity_text_159" text-rendering="inherit" dominant-baseline="text-before-edge" dy="0" font-size="12" y="-6">紧急上线</text></g></g><g id="minder_node_26" transform="matrix( 1 0 0 1 350 -45 )"><g id="node_expander_20" transform="translate( -11 0 )" style="cursor: pointer;" display="none"><path id="kity_path_312" fill="white" stroke="gray" d="M6,0A6,6,0,1,1,-6,0A6,6,0,1,1,6,0"></path><path id="kity_path_313" fill="none" stroke="gray"></path></g><path id="node_outline_21" fill="transparent" stroke="none" d="M0,-9h195a5,5,0,0,1,5,5v8a5,5,0,0,1,-5,5h-195a5,5,0,0,1,-5,-5v-8a5,5,0,0,1,5,-5z"></path><g id="node_text_21" transform="translate( 0 -1.7999999999999998 )" fill="black"><text id="kity_text_153" text-rendering="inherit" dominant-baseline="text-before-edge" dy="0" font-size="12" y="-6">将 [dev-new-1] 合并到 master 打包</text></g></g><g id="minder_node_27" transform="matrix( 1 0 0 1 350 -19 )"><g id="node_expander_22" transform="translate( -11 0 )" style="cursor: pointer;"><path id="kity_path_318" fill="white" stroke="gray" d="M6,0A6,6,0,1,1,-6,0A6,6,0,1,1,6,0"></path><path id="kity_path_319" fill="none" stroke="gray" d="M-4.5,0L4.5,0"></path></g><path id="node_outline_23" fill="transparent" stroke="none" d="M0,-9h24a5,5,0,0,1,5,5v8a5,5,0,0,1,-5,5h-24a5,5,0,0,1,-5,-5v-8a5,5,0,0,1,5,-5z"></path><g id="node_text_23" transform="translate( 0 -1.7999999999999998 )" fill="black"><text id="kity_text_157" text-rendering="inherit" dominant-baseline="text-before-edge" dy="0" font-size="12" y="-6">打包</text></g></g><g id="minder_node_28" transform="matrix( 1 0 0 1 400 -19 )"><g id="node_expander_21" transform="translate( -11 0 )" style="cursor: pointer;" display="none"><path id="kity_path_315" fill="white" stroke="gray" d="M6,0A6,6,0,1,1,-6,0A6,6,0,1,1,6,0"></path><path id="kity_path_316" fill="none" stroke="gray"></path></g><path id="node_outline_22" fill="transparent" stroke="none" d="M0,-9h114a5,5,0,0,1,5,5v8a5,5,0,0,1,-5,5h-114a5,5,0,0,1,-5,-5v-8a5,5,0,0,1,5,-5z"></path><g id="node_text_22" transform="translate( 0 -1.7999999999999998 )" fill="black"><text id="kity_text_155" text-rendering="inherit" dominant-baseline="text-before-edge" dy="0" font-size="12" y="-6">&#xa0;对 master 分支 打包</text></g></g><g id="minder_node_29" transform="matrix( 1 0 0 1 276 7 )"><g id="node_expander_25" transform="translate( -11 0 )" style="cursor: pointer;"><path id="kity_path_327" fill="white" stroke="gray" d="M6,0A6,6,0,1,1,-6,0A6,6,0,1,1,6,0"></path><path id="kity_path_328" fill="none" stroke="gray" d="M-4.5,0L4.5,0"></path></g><path id="node_outline_26" fill="transparent" stroke="none" d="M0,-9h233a5,5,0,0,1,5,5v8a5,5,0,0,1,-5,5h-233a5,5,0,0,1,-5,-5v-8a5,5,0,0,1,5,-5z"></path><g id="node_text_26" transform="translate( 0 -1.7999999999999998 )" fill="black"><text id="kity_text_163" text-rendering="inherit" dominant-baseline="text-before-edge" dy="0" font-size="12" y="-6">发布到测试/预演环境完成线上访真环境验证</text></g></g><g id="minder_node_30" transform="matrix( 1 0 0 1 535 7 )"><g id="node_expander_24" transform="translate( -11 0 )" style="cursor: pointer;" display="none"><path id="kity_path_324" fill="white" stroke="gray" d="M6,0A6,6,0,1,1,-6,0A6,6,0,1,1,6,0"></path><path id="kity_path_325" fill="none" stroke="gray"></path></g><path id="node_outline_25" fill="transparent" stroke="none" d="M0,-9h58a5,5,0,0,1,5,5v8a5,5,0,0,1,-5,5h-58a5,5,0,0,1,-5,-5v-8a5,5,0,0,1,5,-5z"></path><g id="node_text_25" transform="translate( 0 -1.7999999999999998 )" fill="black"><text id="kity_text_161" text-rendering="inherit" dominant-baseline="text-before-edge" dy="0" font-size="12" y="-6">git deploy</text></g></g><g id="minder_node_31" transform="matrix( 1 0 0 1 276 33 )"><g id="node_expander_27" transform="translate( -11 0 )" style="cursor: pointer;"><path id="kity_path_333" fill="white" stroke="gray" d="M6,0A6,6,0,1,1,-6,0A6,6,0,1,1,6,0"></path><path id="kity_path_334" fill="none" stroke="gray" d="M-4.5,0L4.5,0"></path></g><path id="node_outline_28" fill="transparent" stroke="none" d="M0,-9h132a5,5,0,0,1,5,5v8a5,5,0,0,1,-5,5h-132a5,5,0,0,1,-5,-5v-8a5,5,0,0,1,5,-5z"></path><g id="node_text_28" transform="translate( 0 -1.7999999999999998 )" fill="black"><text id="kity_text_167" text-rendering="inherit" dominant-baseline="text-before-edge" dy="0" font-size="12" y="-6">发布上线 (10.200.13.21)</text></g></g><g id="minder_node_32" transform="matrix( 1 0 0 1 434 33 )"><g id="node_expander_26" transform="translate( -11 0 )" style="cursor: pointer;" display="none"><path id="kity_path_330" fill="white" stroke="gray" d="M6,0A6,6,0,1,1,-6,0A6,6,0,1,1,6,0"></path><path id="kity_path_331" fill="none" stroke="gray"></path></g><path id="node_outline_27" fill="transparent" stroke="none" d="M0,-9h154a5,5,0,0,1,5,5v8a5,5,0,0,1,-5,5h-154a5,5,0,0,1,-5,-5v-8a5,5,0,0,1,5,-5z"></path><g id="node_text_27" transform="translate( 0 -1.7999999999999998 )" fill="black"><text id="kity_text_165" text-rendering="inherit" dominant-baseline="text-before-edge" dy="0" font-size="12" y="-6">release-static &lt;project-id&gt;</text></g></g><g id="minder_node_33" transform="matrix( 1 0 0 1 276 59 )"><g id="node_expander_29" transform="translate( -11 0 )" style="cursor: pointer;"><path id="kity_path_339" fill="white" stroke="gray" d="M6,0A6,6,0,1,1,-6,0A6,6,0,1,1,6,0"></path><path id="kity_path_340" fill="none" stroke="gray" d="M-4.5,0L4.5,0"></path></g><path id="node_outline_30" fill="transparent" stroke="none" d="M0,-9h183a5,5,0,0,1,5,5v8a5,5,0,0,1,-5,5h-183a5,5,0,0,1,-5,-5v-8a5,5,0,0,1,5,-5z"></path><g id="node_text_30" transform="translate( 0 -1.7999999999999998 )" fill="black"><text id="kity_text_171" text-rendering="inherit" dominant-baseline="text-before-edge" dy="0" font-size="12" y="-6">开发环境，刷缓存(10.200.51.142)</text></g></g><g id="minder_node_34" transform="matrix( 1 0 0 1 485 59 )"><g id="node_expander_28" transform="translate( -11 0 )" style="cursor: pointer;" display="none"><path id="kity_path_336" fill="white" stroke="gray" d="M6,0A6,6,0,1,1,-6,0A6,6,0,1,1,6,0"></path><path id="kity_path_337" fill="none" stroke="gray"></path></g><path id="node_outline_29" fill="transparent" stroke="none" d="M0,-9h190a5,5,0,0,1,5,5v8a5,5,0,0,1,-5,5h-190a5,5,0,0,1,-5,-5v-8a5,5,0,0,1,5,-5z"></path><g id="node_text_29" transform="translate( 0 -1.7999999999999998 )" fill="black"><text id="kity_text_169" text-rendering="inherit" dominant-baseline="text-before-edge" dy="0" font-size="12" y="-6">refresh-static-url -p &lt;project-id&gt;</text></g></g><g id="minder_node_35" transform="matrix( 1 0 0 1 114 106 )"><path id="kity_path_2466" fill="rgba(0, 0, 0, .25)" stroke="none" d="M-1,-7h42a5,5,0,0,1,5,5v14a5,5,0,0,1,-5,5h-42a5,5,0,0,1,-5,-5v-14a5,5,0,0,1,5,-5z" display="none"></path><g id="node_expander_35" transform="translate( -27 0 )" style="cursor: pointer;"><path id="kity_path_357" fill="white" stroke="gray" d="M6,0A6,6,0,1,1,-6,0A6,6,0,1,1,6,0"></path><path id="kity_path_358" fill="none" stroke="gray" d="M-4.5,0L4.5,0"></path></g><path id="node_outline_36" fill="rgb(239, 238, 246)" stroke="rgb(123, 115, 191)" d="M-17,-13h62a3,3,0,0,1,3,3v20a3,3,0,0,1,-3,3h-62a3,3,0,0,1,-3,-3v-20a3,3,0,0,1,3,-3z" stroke-width="1"></path><g id="node_text_36" transform="translate( 0 -2.1 )" fill="black" style="cursor: default;"><text id="kity_text_183" text-rendering="inherit" dominant-baseline="text-before-edge" dy="0" font-size="14" y="-7">细节</text></g><path id="_kity_selection" fill="rgb(10, 0, 102)" stroke="none" opacity="0.5" transform="translate( -0.5 -1.5 )" style="cursor: text; display: none;" d="M67,-5h2v14h-2v-14z"></path></g><g id="minder_node_36" transform="matrix( 1 0 0 1 183 93 )"><g id="node_expander_32" transform="translate( -11 0 )" style="cursor: pointer;" display="none"><path id="kity_path_348" fill="white" stroke="gray" d="M6,0A6,6,0,1,1,-6,0A6,6,0,1,1,6,0"></path><path id="kity_path_349" fill="none" stroke="gray"></path></g><path id="node_outline_33" fill="transparent" stroke="none" d="M0,-9h168a5,5,0,0,1,5,5v8a5,5,0,0,1,-5,5h-168a5,5,0,0,1,-5,-5v-8a5,5,0,0,1,5,-5z" stroke-width="3"></path><g id="node_text_33" transform="translate( 0 -1.7999999999999998 )" fill="black" style="cursor: default;"><text id="kity_text_177" text-rendering="inherit" dominant-baseline="text-before-edge" dy="0" font-size="12" y="-6">测试环境部署，提醒页面清缓存</text></g></g><g id="minder_node_37" transform="matrix( 1 0 0 1 183 119 )"><g id="node_expander_34" transform="translate( -11 0 )" style="cursor: pointer;"><path id="kity_path_354" fill="white" stroke="gray" d="M6,0A6,6,0,1,1,-6,0A6,6,0,1,1,6,0"></path><path id="kity_path_355" fill="none" stroke="gray" d="M-4.5,0L4.5,0"></path></g><path id="node_outline_35" fill="transparent" stroke="none" d="M0,-9h144a5,5,0,0,1,5,5v8a5,5,0,0,1,-5,5h-144a5,5,0,0,1,-5,-5v-8a5,5,0,0,1,5,-5z"></path><g id="node_text_35" transform="translate( 0 -1.7999999999999998 )" fill="black"><text id="kity_text_181" text-rendering="inherit" dominant-baseline="text-before-edge" dy="0" font-size="12" y="-6">在部署之前，确认提交操作</text></g></g><g id="minder_node_38" transform="matrix( 1 0 0 1 353 119 )"><g id="node_expander_33" transform="translate( -11 0 )" style="cursor: pointer;" display="none"><path id="kity_path_351" fill="white" stroke="gray" d="M6,0A6,6,0,1,1,-6,0A6,6,0,1,1,6,0"></path><path id="kity_path_352" fill="none" stroke="gray"></path></g><path id="node_outline_34" fill="transparent" stroke="none" d="M0,-9h30a5,5,0,0,1,5,5v8a5,5,0,0,1,-5,5h-30a5,5,0,0,1,-5,-5v-8a5,5,0,0,1,5,-5z"></path><g id="node_text_34" transform="translate( 0 -1.7999999999999998 )" fill="black"><text id="kity_text_179" text-rendering="inherit" dominant-baseline="text-before-edge" dy="0" font-size="12" y="-6">git lg</text></g></g><g id="minder_node_39" transform="matrix( 1 0 0 1 114 218 )"><path id="kity_path_2467" fill="rgba(0, 0, 0, .25)" stroke="none" d="M-1,-7h42a5,5,0,0,1,5,5v14a5,5,0,0,1,-5,5h-42a5,5,0,0,1,-5,-5v-14a5,5,0,0,1,5,-5z" display="none"></path><g id="node_expander_40" transform="translate( -27 0 )" style="cursor: pointer;"><path id="kity_path_372" fill="white" stroke="gray" d="M6,0A6,6,0,1,1,-6,0A6,6,0,1,1,6,0"></path><path id="kity_path_373" fill="none" stroke="gray" d="M-4.5,0L4.5,0"></path></g><path id="node_outline_41" fill="rgb(239, 238, 246)" stroke="rgb(123, 115, 191)" d="M-17,-13h62a3,3,0,0,1,3,3v20a3,3,0,0,1,-3,3h-62a3,3,0,0,1,-3,-3v-20a3,3,0,0,1,3,-3z" stroke-width="1"></path><g id="node_text_41" transform="translate( 0 -2.1 )" fill="black" style="cursor: default;"><text id="kity_text_193" text-rendering="inherit" dominant-baseline="text-before-edge" dy="0" font-size="14" y="-7">问题</text></g></g><g id="minder_node_40" transform="matrix( 1 0 0 1 183 188 )"><g id="node_expander_39" transform="translate( -11 0 )" style="cursor: pointer;"><path id="kity_path_369" fill="white" stroke="gray" d="M6,0A6,6,0,1,1,-6,0A6,6,0,1,1,6,0"></path><path id="kity_path_370" fill="none" stroke="gray" d="M-4.5,0L4.5,0"></path></g><path id="node_outline_40" fill="transparent" stroke="none" d="M0,-9h288a5,5,0,0,1,5,5v8a5,5,0,0,1,-5,5h-288a5,5,0,0,1,-5,-5v-8a5,5,0,0,1,5,-5z" stroke-width="3"></path><g id="node_text_40" transform="translate( 0 -1.7999999999999998 )" fill="black" style="cursor: default;"><text id="kity_text_191" text-rendering="inherit" dominant-baseline="text-before-edge" dy="0" font-size="12" y="-6">往测试环境部署时，如何避免和其它同事的环境冲突？</text></g></g><g id="minder_node_41" transform="matrix( 1 0 0 1 497 153 )"><g id="node_expander_36" transform="translate( -11 0 )" style="cursor: pointer;" display="none"><path id="kity_path_360" fill="white" stroke="gray" d="M6,0A6,6,0,1,1,-6,0A6,6,0,1,1,6,0"></path><path id="kity_path_361" fill="none" stroke="gray"></path></g><path id="node_outline_37" fill="transparent" stroke="none" d="M0,-9h189a5,5,0,0,1,5,5v8a5,5,0,0,1,-5,5h-189a5,5,0,0,1,-5,-5v-8a5,5,0,0,1,5,-5z"></path><g id="node_text_37" transform="translate( 0 -1.7999999999999998 )" fill="black"><text id="kity_text_185" text-rendering="inherit" dominant-baseline="text-before-edge" dy="0" font-size="12" y="-6">日常测试必须合并dev打包发布测试</text></g></g><g id="minder_node_42" transform="matrix( 1 0 0 1 497 179 )"><g id="node_expander_37" transform="translate( -11 0 )" style="cursor: pointer;" display="none"><path id="kity_path_363" fill="white" stroke="gray" d="M6,0A6,6,0,1,1,-6,0A6,6,0,1,1,6,0"></path><path id="kity_path_364" fill="none" stroke="gray"></path></g><path id="node_outline_38" fill="transparent" stroke="none" d="M0,-9h84a5,5,0,0,1,5,5v8a5,5,0,0,1,-5,5h-84a5,5,0,0,1,-5,-5v-8a5,5,0,0,1,5,-5z"></path><g id="node_text_38" transform="translate( 0 -1.7999999999999998 )" fill="black"><text id="kity_text_187" text-rendering="inherit" dominant-baseline="text-before-edge" dy="0" font-size="12" y="-6">尽量用分支开发</text></g></g><g id="minder_node_4" transform="matrix( 1 0 0 1 114 -218 )"><path id="kity_path_2465" fill="rgba(0, 0, 0, .25)" stroke="none" d="M-1,-7h30a5,5,0,0,1,5,5v14a5,5,0,0,1,-5,5h-30a5,5,0,0,1,-5,-5v-14a5,5,0,0,1,5,-5z" display="none"></path><g id="node_expander_31" transform="translate( -27 0 )" style="cursor: pointer;"><path id="kity_path_345" fill="white" stroke="gray" d="M6,0A6,6,0,1,1,-6,0A6,6,0,1,1,6,0"></path><path id="kity_path_346" fill="none" stroke="gray" d="M-4.5,0L4.5,0"></path></g><path id="node_outline_32" fill="rgb(239, 238, 246)" stroke="rgb(123, 115, 191)" d="M-17,-13h80a3,3,0,0,1,3,3v20a3,3,0,0,1,-3,3h-80a3,3,0,0,1,-3,-3v-20a3,3,0,0,1,3,-3z" stroke-width="1"></path><g id="node_text_32" transform="translate( 0 -2.1 )" fill="black" style="cursor: default;"><text id="kity_text_175" text-rendering="inherit" dominant-baseline="text-before-edge" dy="0" font-size="14" y="-7" font-weight="bold">git项目</text></g></g><g id="minder_node_12" transform="matrix( 1 0 0 1 484 -306 )"><g id="node_expander_6" transform="translate( -11 0 )" style="cursor: pointer;" display="none"><path id="kity_path_270" fill="white" stroke="gray" d="M6,0A6,6,0,1,1,-6,0A6,6,0,1,1,6,0"></path><path id="kity_path_271" fill="none" stroke="gray"></path></g><path id="node_outline_7" fill="transparent" stroke="none" d="M0,-18h331a5,5,0,0,1,5,5v26a5,5,0,0,1,-5,5h-331a5,5,0,0,1,-5,-5v-26a5,5,0,0,1,5,-5z" stroke-width="3"></path><g id="node_text_7" transform="translate( 0 -1.7999999999999998 )" fill="#e75d66" style="cursor: default;"><text id="kity_text_124" text-rendering="inherit" dominant-baseline="text-before-edge" dy="0" font-size="12" y="-15">git 分支合并, 所有合并都必须在 http://git.bubugao.com/ </text><text id="kity_text_2961" text-rendering="inherit" dominant-baseline="text-before-edge" dy="0" font-size="12" y="3">创建merge request 完成，冲突情况进命令行 git merge 合并</text></g></g><g id="minder_node_15" transform="matrix( 1 0 0 1 464 -262 )"><g id="node_expander_9" transform="translate( -11 0 )" style="cursor: pointer;" display="none"><path id="kity_path_279" fill="white" stroke="gray" d="M6,0A6,6,0,1,1,-6,0A6,6,0,1,1,6,0"></path><path id="kity_path_280" fill="none" stroke="gray"></path></g><path id="node_outline_10" fill="transparent" stroke="none" d="M0,-18h297a5,5,0,0,1,5,5v26a5,5,0,0,1,-5,5h-297a5,5,0,0,1,-5,-5v-26a5,5,0,0,1,5,-5z" stroke-width="3"></path><g id="node_text_10" transform="translate( 0 -1.7999999999999998 )" fill="black" style="cursor: default;"><text id="kity_text_130" text-rendering="inherit" dominant-baseline="text-before-edge" dy="0" font-size="12" y="-15">进入项目跟路径: </text><text id="kity_text_3044" text-rendering="inherit" dominant-baseline="text-before-edge" dy="0" font-size="12" y="3">$ cd /apps/data/web/working/s1.bbgstatic.com/xxx</text></g></g><g id="minder_node_43" transform="matrix( 1 0 0 1 497 214 )"><g id="node_expander_38" transform="translate( -11 0 )" style="cursor: pointer;" display="none"><path id="kity_path_366" fill="white" stroke="gray" d="M6,0A6,6,0,1,1,-6,0A6,6,0,1,1,6,0"></path><path id="kity_path_367" fill="none" stroke="gray"></path></g><path id="node_outline_39" fill="transparent" stroke="none" d="M0,-18h274a5,5,0,0,1,5,5v26a5,5,0,0,1,-5,5h-274a5,5,0,0,1,-5,-5v-26a5,5,0,0,1,5,-5z" stroke-width="3"></path><g id="node_text_39" transform="translate( 0 -1.7999999999999998 )" fill="black" style="cursor: default;"><text id="kity_text_189" text-rendering="inherit" dominant-baseline="text-before-edge" dy="0" font-size="12" y="-15">非日常发布测试的，申请专用测试环境.</text><text id="kity_text_3086" text-rendering="inherit" dominant-baseline="text-before-edge" dy="0" font-size="12" y="3">对自己的开发分支打包, 可用 git rebase 同步主分支</text></g></g><g id="minder_node_3208" transform="matrix( 1 0 0 1 183 249 )"><g id="node_expander_43" transform="translate( -11 0 )" style="cursor: pointer;" display="none"><path id="kity_path_3565" fill="white" stroke="gray" d="M6,0A6,6,0,1,1,-6,0A6,6,0,1,1,6,0"></path><path id="kity_path_3566" fill="none" stroke="gray"></path></g><path id="node_outline_44" fill="transparent" stroke="none" d="M0,-9h487a5,5,0,0,1,5,5v8a5,5,0,0,1,-5,5h-487a5,5,0,0,1,-5,-5v-8a5,5,0,0,1,5,-5z" stroke-width="3"></path><g id="node_text_44" transform="translate( 0 -1.7999999999999998 )" fill="black" style="cursor: default;"><text id="kity_text_3562" text-rendering="inherit" dominant-baseline="text-before-edge" dy="0" font-size="12" y="-6">git 代码管理:&#xa0;http://fe.bubugao-inc.com/specs/project-specs.md#source-conventions</text></g></g></g></g></svg>
