<?xml version="1.0" encoding="UTF-8"?>
<!DOCTYPE svg PUBLIC "-//W3C//DTD SVG 1.0//EN" "http://www.w3.org/TR/2001/REC-SVG-20010904/DTD/svg10.dtd">
<svg id="kity_svg_6" xmlns="http://www.w3.org/2000/svg" xmlns:xlink="http://www.w3.org/1999/xlink" version="1.1" width="840" height="368" contenteditable="true" class="loading-target" style="font-family: Arial, &quot;Microsoft Yahei&quot;,  &quot;Heiti SC&quot;; background: #fbfbfb" viewBox="61 -8 840 368"><defs id="kity_defs_7"><linearGradient id="kity_linearGradient_12" x1="0" y1="0" x2="0" y2="1"><stop id="kity_stop_13" offset="0" stop-color="rgb(255, 255, 255)"></stop><stop id="kity_stop_14" offset="1" stop-color="rgb(204, 204, 204)"></stop></linearGradient><marker id="kity_marker_2" orient="auto" refX="6" refY="0" viewBox="-7 -7 14 14" markerWidth="7" markerHeight="7" markerUnits="userSpaceOnUse"><path id="kity_path_3" fill="rgb(123, 115, 191)" stroke="none" d="M6,0A6,6,0,1,1,-6,0A6,6,0,1,1,6,0"></path></marker></defs><g id="kity_g_8" transform="translate(0.5, 0.5)"><g id="minder_1" text-rendering="geometricPrecision" transform="translate( 93 187 )"><g id="minder_connect_group_1"><path id="kity_path_4072" fill="none" stroke="rgb(123, 115, 191)" stroke-width="1" marker-end="url(#kity_marker_2)" d="M32 0A60,140,0,0,1,92 -140" transform="translate( 0 0 )"></path><path id="kity_path_4074" fill="none" stroke="rgb(123, 115, 191)" stroke-width="1" d="M268,-140C276,-140,276,-166,284,-166" transform="translate( 0 0 )"></path><path id="kity_path_4076" fill="none" stroke="rgb(123, 115, 191)" stroke-width="1" d="M307,-166C315,-166,315,-166,323,-166" transform="translate( 0 0 )"></path><path id="kity_path_4078" fill="none" stroke="rgb(123, 115, 191)" stroke-width="1" d="M268,-140C276,-140,276,-140,284,-140" transform="translate( 0 0 )"></path><path id="kity_path_4080" fill="none" stroke="rgb(123, 115, 191)" stroke-width="1" d="M331,-140C339,-140,339,-140,347,-140" transform="translate( 0 0 )"></path><path id="kity_path_4082" fill="none" stroke="rgb(123, 115, 191)" stroke-width="1" d="M268,-140C276,-140,276,-114,284,-114" transform="translate( 0 0 )"></path><path id="kity_path_4084" fill="none" stroke="rgb(123, 115, 191)" stroke-width="1" d="M331,-114C339,-114,339,-114,347,-114" transform="translate( 0 0 )"></path><path id="kity_path_4086" fill="none" stroke="rgb(123, 115, 191)" stroke-width="1" marker-end="url(#kity_marker_2)" d="M32 0A60,67,0,0,1,92 -67" transform="translate( 0 0 )"></path><path id="kity_path_4088" fill="none" stroke="rgb(123, 115, 191)" stroke-width="1" d="M170,-67C178,-67,178,-80,186,-80" transform="translate( 0 0 )"></path><path id="kity_path_4090" fill="none" stroke="rgb(123, 115, 191)" stroke-width="1" d="M170,-67C178,-67,178,-54,186,-54" transform="translate( 0 0 )"></path><path id="kity_path_4092" fill="none" stroke="rgb(123, 115, 191)" stroke-width="1" marker-end="url(#kity_marker_2)" d="M32 0A60,30,0,0,0,92 30" transform="translate( 0 0 )"></path><path id="kity_path_4094" fill="none" stroke="rgb(123, 115, 191)" stroke-width="1" d="M260,30C268,30,268,-20,276,-20" transform="translate( 0 0 )"></path><path id="kity_path_4096" fill="none" stroke="rgb(123, 115, 191)" stroke-width="1" d="M342,-20C350,-20,350,-20,358,-20" transform="translate( 0 0 )"></path><path id="kity_path_4098" fill="none" stroke="rgb(123, 115, 191)" stroke-width="1" d="M260,30C268,30,268,6,276,6" transform="translate( 0 0 )"></path><path id="kity_path_4100" fill="none" stroke="rgb(123, 115, 191)" stroke-width="1" d="M323,6C331,6,331,6,339,6" transform="translate( 0 0 )"></path><path id="kity_path_4102" fill="none" stroke="rgb(123, 115, 191)" stroke-width="1" d="M260,30C268,30,268,32,276,32" transform="translate( 0 0 )"></path><path id="kity_path_4104" fill="none" stroke="rgb(123, 115, 191)" stroke-width="1" d="M370,32C378,32,378,32,386,32" transform="translate( 0 0 )"></path><path id="kity_path_4106" fill="none" stroke="rgb(123, 115, 191)" stroke-width="1" d="M260,30C268,30,268,80,276,80" transform="translate( 0 0 )"></path><path id="kity_path_4108" fill="none" stroke="rgb(123, 115, 191)" stroke-width="1" d="M335,80C343,80,343,58,351,58" transform="translate( 0 0 )"></path><path id="kity_path_4110" fill="none" stroke="rgb(123, 115, 191)" stroke-width="1" d="M335,80C343,80,343,93,351,93" transform="translate( 0 0 )"></path><path id="kity_path_4112" fill="none" stroke="rgb(123, 115, 191)" stroke-width="1" marker-end="url(#kity_marker_2)" d="M32 0A60,140,0,0,0,92 140" transform="translate( 0 0 )"></path><path id="kity_path_4114" fill="none" stroke="rgb(123, 115, 191)" stroke-width="1" d="M176,140C184,140,184,140,192,140" transform="translate( 0 0 )"></path></g><g id="minder_node_1" transform="matrix( 1 0 0 1 0 0 )"><path id="kity_path_2468" fill="rgba(0, 0, 0, .25)" stroke="none" d="M-1,-12h106a5,5,0,0,1,5,5v24a5,5,0,0,1,-5,5h-106a5,5,0,0,1,-5,-5v-24a5,5,0,0,1,5,-5z" display="none"></path><path id="node_outline_1" fill="#3bbce0" stroke="rgb(123, 115, 191)" d="M-7,-14h78a5,5,0,0,1,5,5v18a5,5,0,0,1,-5,5h-78a5,5,0,0,1,-5,-5v-18a5,5,0,0,1,5,-5z" stroke-width="3"></path><g id="node_text_1" transform="translate( 0 -2.4 )" fill="white" style="cursor: default;"><text id="kity_text_23" text-rendering="inherit" dominant-baseline="text-before-edge" dy="0" font-size="16" y="-8" font-weight="bold">发布流程</text></g><path id="_kity_selection" fill="rgb(10, 0, 102)" stroke="none" opacity="0.5" transform="translate( -0.5 -1.5 )" style="cursor: text; display: none;" d="M59,-5h2v14h-2v-14z"></path></g><g id="kity_g_15"><path id="kity_path_16" fill="none" stroke="none" d="M0,0h0v0h0z"></path></g><g id="kity_g_17"><path id="kity_path_18" fill="none" stroke="none" d="M0,0h0v0h0z"></path><path id="kity_path_19" fill="none" stroke="none"></path></g><g id="minder_node_3713" transform="matrix( 1 0 0 1 114 -140 )"><g id="node_expander_50" transform="translate( -27 0 )" style="cursor: pointer;"><path id="kity_path_4200" fill="white" stroke="gray" d="M6,0A6,6,0,1,1,-6,0A6,6,0,1,1,6,0"></path><path id="kity_path_4201" fill="none" stroke="gray" d="M-4.5,0L4.5,0"></path></g><path id="node_outline_51" fill="rgb(239, 238, 246)" stroke="rgb(123, 115, 191)" d="M-17,-13h168a3,3,0,0,1,3,3v20a3,3,0,0,1,-3,3h-168a3,3,0,0,1,-3,-3v-20a3,3,0,0,1,3,-3z" stroke-width="1"></path><g id="node_text_51" transform="translate( 0 -2.1 )" fill="black" style="cursor: default;"><text id="kity_text_4128" text-rendering="inherit" dominant-baseline="text-before-edge" dy="0" font-size="14" y="-7">打包 (10.200.51.142)</text></g></g><g id="minder_node_3714" transform="matrix( 1 0 0 1 289 -166 )"><g id="node_expander_45" transform="translate( -11 0 )" style="cursor: pointer;"><path id="kity_path_4185" fill="white" stroke="gray" d="M6,0A6,6,0,1,1,-6,0A6,6,0,1,1,6,0"></path><path id="kity_path_4186" fill="none" stroke="gray" d="M-4.5,0L4.5,0"></path></g><path id="node_outline_46" fill="transparent" stroke="none" d="M0,-9h13a5,5,0,0,1,5,5v8a5,5,0,0,1,-5,5h-13a5,5,0,0,1,-5,-5v-8a5,5,0,0,1,5,-5z"></path><g id="node_text_46" transform="translate( 0 -1.7999999999999998 )" fill="black"><text id="kity_text_4118" text-rendering="inherit" dominant-baseline="text-before-edge" dy="0" font-size="12" y="-6">s1</text></g></g><g id="minder_node_3716" transform="matrix( 1 0 0 1 289 -140 )"><g id="node_expander_47" transform="translate( -11 0 )" style="cursor: pointer;"><path id="kity_path_4191" fill="white" stroke="gray" d="M6,0A6,6,0,1,1,-6,0A6,6,0,1,1,6,0"></path><path id="kity_path_4192" fill="none" stroke="gray" d="M-4.5,0L4.5,0"></path></g><path id="node_outline_48" fill="transparent" stroke="none" d="M0,-9h37a5,5,0,0,1,5,5v8a5,5,0,0,1,-5,5h-37a5,5,0,0,1,-5,-5v-8a5,5,0,0,1,5,-5z"></path><g id="node_text_48" transform="translate( 0 -1.7999999999999998 )" fill="black"><text id="kity_text_4122" text-rendering="inherit" dominant-baseline="text-before-edge" dy="0" font-size="12" y="-6">static1</text></g></g><g id="minder_node_3717" transform="matrix( 1 0 0 1 352 -140 )"><g id="node_expander_46" transform="translate( -11 0 )" style="cursor: pointer;" display="none"><path id="kity_path_4188" fill="white" stroke="gray" d="M6,0A6,6,0,1,1,-6,0A6,6,0,1,1,6,0"></path><path id="kity_path_4189" fill="none" stroke="gray"></path></g><path id="node_outline_47" fill="transparent" stroke="none" d="M0,-9h175a5,5,0,0,1,5,5v8a5,5,0,0,1,-5,5h-175a5,5,0,0,1,-5,-5v-8a5,5,0,0,1,5,-5z" stroke-width="3"></path><g id="node_text_47" transform="translate( 0 -1.7999999999999998 )" fill="black" style="cursor: default;"><text id="kity_text_4120" text-rendering="inherit" dominant-baseline="text-before-edge" dy="0" font-size="12" y="-6">/home/apps/static1/release.sh</text></g></g><g id="minder_node_3718" transform="matrix( 1 0 0 1 289 -114 )"><g id="node_expander_49" transform="translate( -11 0 )" style="cursor: pointer;"><path id="kity_path_4197" fill="white" stroke="gray" d="M6,0A6,6,0,1,1,-6,0A6,6,0,1,1,6,0"></path><path id="kity_path_4198" fill="none" stroke="gray" d="M-4.5,0L4.5,0"></path></g><path id="node_outline_50" fill="transparent" stroke="none" d="M0,-9h37a5,5,0,0,1,5,5v8a5,5,0,0,1,-5,5h-37a5,5,0,0,1,-5,-5v-8a5,5,0,0,1,5,-5z"></path><g id="node_text_50" transform="translate( 0 -1.7999999999999998 )" fill="black"><text id="kity_text_4126" text-rendering="inherit" dominant-baseline="text-before-edge" dy="0" font-size="12" y="-6">static5</text></g></g><g id="minder_node_3720" transform="matrix( 1 0 0 1 114 -67 )"><g id="node_expander_53" transform="translate( -27 0 )" style="cursor: pointer;"><path id="kity_path_4209" fill="white" stroke="gray" d="M6,0A6,6,0,1,1,-6,0A6,6,0,1,1,6,0"></path><path id="kity_path_4210" fill="none" stroke="gray" d="M-4.5,0L4.5,0"></path></g><path id="node_outline_54" fill="rgb(239, 238, 246)" stroke="rgb(123, 115, 191)" d="M-17,-13h70a3,3,0,0,1,3,3v20a3,3,0,0,1,-3,3h-70a3,3,0,0,1,-3,-3v-20a3,3,0,0,1,3,-3z" stroke-width="1"></path><g id="node_text_54" transform="translate( 0 -2.1 )" fill="black"><text id="kity_text_4134" text-rendering="inherit" dominant-baseline="text-before-edge" dy="0" font-size="14" y="-7">打tag</text></g></g><g id="minder_node_3721" transform="matrix( 1 0 0 1 191 -80 )"><g id="node_expander_51" transform="translate( -11 0 )" style="cursor: pointer;" display="none"><path id="kity_path_4203" fill="white" stroke="gray" d="M6,0A6,6,0,1,1,-6,0A6,6,0,1,1,6,0"></path><path id="kity_path_4204" fill="none" stroke="gray"></path></g><path id="node_outline_52" fill="transparent" stroke="none" d="M0,-9h343a5,5,0,0,1,5,5v8a5,5,0,0,1,-5,5h-343a5,5,0,0,1,-5,-5v-8a5,5,0,0,1,5,-5z" stroke-width="3"></path><g id="node_text_52" transform="translate( 0 -1.7999999999999998 )" fill="black" style="cursor: default;"><text id="kity_text_4130" text-rendering="inherit" dominant-baseline="text-before-edge" dy="0" font-size="12" y="-6">svn copy &lt;trunk_path&gt; &lt;tag_path&gt; -m &lt;release_message&gt;</text></g></g><g id="minder_node_3722" transform="matrix( 1 0 0 1 191 -54 )"><g id="node_expander_52" transform="translate( -11 0 )" style="cursor: pointer;" display="none"><path id="kity_path_4206" fill="white" stroke="gray" d="M6,0A6,6,0,1,1,-6,0A6,6,0,1,1,6,0"></path><path id="kity_path_4207" fill="none" stroke="gray"></path></g><path id="node_outline_53" fill="transparent" stroke="none" d="M0,-9h253a5,5,0,0,1,5,5v8a5,5,0,0,1,-5,5h-253a5,5,0,0,1,-5,-5v-8a5,5,0,0,1,5,-5z" stroke-width="3"></path><g id="node_text_53" transform="translate( 0 -1.7999999999999998 )" fill="black" style="cursor: default;"><text id="kity_text_4132" text-rendering="inherit" dominant-baseline="text-before-edge" dy="0" font-size="12" y="-6">git tag &lt;tag_name&gt; -m &lt;release_message&gt;</text></g></g><g id="minder_node_3723" transform="matrix( 1 0 0 1 114 30 )"><g id="node_expander_63" transform="translate( -27 0 )" style="cursor: pointer;"><path id="kity_path_4239" fill="white" stroke="gray" d="M6,0A6,6,0,1,1,-6,0A6,6,0,1,1,6,0"></path><path id="kity_path_4240" fill="none" stroke="gray" d="M-4.5,0L4.5,0"></path></g><path id="node_outline_64" fill="rgb(239, 238, 246)" stroke="rgb(123, 115, 191)" d="M-17,-13h160a3,3,0,0,1,3,3v20a3,3,0,0,1,-3,3h-160a3,3,0,0,1,-3,-3v-20a3,3,0,0,1,3,-3z" stroke-width="1"></path><g id="node_text_64" transform="translate( 0 -2.1 )" fill="black" style="cursor: default;"><text id="kity_text_4154" text-rendering="inherit" dominant-baseline="text-before-edge" dy="0" font-size="14" y="-7">发布 (10.200.13.21)</text></g></g><g id="minder_node_3724" transform="matrix( 1 0 0 1 281 -20 )"><g id="node_expander_55" transform="translate( -11 0 )" style="cursor: pointer;"><path id="kity_path_4215" fill="white" stroke="gray" d="M6,0A6,6,0,1,1,-6,0A6,6,0,1,1,6,0"></path><path id="kity_path_4216" fill="none" stroke="gray" d="M-4.5,0L4.5,0"></path></g><path id="node_outline_56" fill="transparent" stroke="none" d="M0,-9h56a5,5,0,0,1,5,5v8a5,5,0,0,1,-5,5h-56a5,5,0,0,1,-5,-5v-8a5,5,0,0,1,5,-5z"></path><g id="node_text_56" transform="translate( 0 -1.7999999999999998 )" fill="black"><text id="kity_text_4138" text-rendering="inherit" dominant-baseline="text-before-edge" dy="0" font-size="12" y="-6">static5 ,s1</text></g></g><g id="minder_node_3726" transform="matrix( 1 0 0 1 281 6 )"><g id="node_expander_57" transform="translate( -11 0 )" style="cursor: pointer;"><path id="kity_path_4221" fill="white" stroke="gray" d="M6,0A6,6,0,1,1,-6,0A6,6,0,1,1,6,0"></path><path id="kity_path_4222" fill="none" stroke="gray" d="M-4.5,0L4.5,0"></path></g><path id="node_outline_58" fill="transparent" stroke="none" d="M0,-9h37a5,5,0,0,1,5,5v8a5,5,0,0,1,-5,5h-37a5,5,0,0,1,-5,-5v-8a5,5,0,0,1,5,-5z"></path><g id="node_text_58" transform="translate( 0 -1.7999999999999998 )" fill="black"><text id="kity_text_4142" text-rendering="inherit" dominant-baseline="text-before-edge" dy="0" font-size="12" y="-6">static1</text></g></g><g id="minder_node_3728" transform="matrix( 1 0 0 1 281 32 )"><g id="node_expander_59" transform="translate( -11 0 )" style="cursor: pointer;"><path id="kity_path_4227" fill="white" stroke="gray" d="M6,0A6,6,0,1,1,-6,0A6,6,0,1,1,6,0"></path><path id="kity_path_4228" fill="none" stroke="gray" d="M-4.5,0L4.5,0"></path></g><path id="node_outline_60" fill="transparent" stroke="none" d="M0,-9h84a5,5,0,0,1,5,5v8a5,5,0,0,1,-5,5h-84a5,5,0,0,1,-5,-5v-8a5,5,0,0,1,5,-5z"></path><g id="node_text_60" transform="translate( 0 -1.7999999999999998 )" fill="black"><text id="kity_text_4146" text-rendering="inherit" dominant-baseline="text-before-edge" dy="0" font-size="12" y="-6">login, h5-login</text></g></g><g id="minder_node_3730" transform="matrix( 1 0 0 1 281 80 )"><g id="node_expander_62" transform="translate( -11 0 )" style="cursor: pointer;"><path id="kity_path_4236" fill="white" stroke="gray" d="M6,0A6,6,0,1,1,-6,0A6,6,0,1,1,6,0"></path><path id="kity_path_4237" fill="none" stroke="gray" d="M-4.5,0L4.5,0"></path></g><path id="node_outline_63" fill="transparent" stroke="none" d="M0,-9h49a5,5,0,0,1,5,5v8a5,5,0,0,1,-5,5h-49a5,5,0,0,1,-5,-5v-8a5,5,0,0,1,5,-5z"></path><g id="node_text_63" transform="translate( 0 -1.7999999999999998 )" fill="black"><text id="kity_text_4152" text-rendering="inherit" dominant-baseline="text-before-edge" dy="0" font-size="12" y="-6">cart, pay</text></g></g><g id="minder_node_3733" transform="matrix( 1 0 0 1 114 140 )"><g id="node_expander_65" transform="translate( -27 0 )" style="cursor: pointer;"><path id="kity_path_4245" fill="white" stroke="gray" d="M6,0A6,6,0,1,1,-6,0A6,6,0,1,1,6,0"></path><path id="kity_path_4246" fill="none" stroke="gray" d="M-4.5,0L4.5,0"></path></g><path id="node_outline_66" fill="rgb(239, 238, 246)" stroke="rgb(123, 115, 191)" d="M-17,-13h76a3,3,0,0,1,3,3v20a3,3,0,0,1,-3,3h-76a3,3,0,0,1,-3,-3v-20a3,3,0,0,1,3,-3z" stroke-width="1"></path><g id="node_text_66" transform="translate( 0 -2.1 )" fill="black"><text id="kity_text_4158" text-rendering="inherit" dominant-baseline="text-before-edge" dy="0" font-size="14" y="-7">刷缓存</text></g></g><g id="minder_node_3732" transform="matrix( 1 0 0 1 356 93 )"><g id="node_expander_61" transform="translate( -11 0 )" style="cursor: pointer;" display="none"><path id="kity_path_4233" fill="white" stroke="gray" d="M6,0A6,6,0,1,1,-6,0A6,6,0,1,1,6,0"></path><path id="kity_path_4234" fill="none" stroke="gray"></path></g><path id="node_outline_62" fill="transparent" stroke="none" d="M0,-18h410a5,5,0,0,1,5,5v26a5,5,0,0,1,-5,5h-410a5,5,0,0,1,-5,-5v-26a5,5,0,0,1,5,-5z" stroke-width="3"></path><g id="node_text_62" transform="translate( 0 -1.7999999999999998 )" fill="black" style="cursor: default;"><text id="kity_text_4150" text-rendering="inherit" dominant-baseline="text-before-edge" dy="0" font-size="12" y="-15">/apps/data/web/working/m.yunhou.com/public/html/.bin/sync_html.sh </text><text id="kity_text_4431" text-rendering="inherit" dominant-baseline="text-before-edge" dy="0" font-size="12" y="3">(更新 http://m.yunhou.com/html/*)</text></g></g><g id="minder_node_3731" transform="matrix( 1 0 0 1 356 58 )"><g id="node_expander_60" transform="translate( -11 0 )" style="cursor: pointer;" display="none"><path id="kity_path_4230" fill="white" stroke="gray" d="M6,0A6,6,0,1,1,-6,0A6,6,0,1,1,6,0"></path><path id="kity_path_4231" fill="none" stroke="gray"></path></g><path id="node_outline_61" fill="transparent" stroke="none" d="M0,-9h399a5,5,0,0,1,5,5v8a5,5,0,0,1,-5,5h-399a5,5,0,0,1,-5,-5v-8a5,5,0,0,1,5,-5z" stroke-width="3"></path><g id="node_text_61" transform="translate( 0 -1.7999999999999998 )" fill="black" style="cursor: default;"><text id="kity_text_4148" text-rendering="inherit" dominant-baseline="text-before-edge" dy="0" font-size="12" y="-6">svn up /apps/data/web/working/cart.yunhou.com/   (cart.yunhou.com)</text></g></g><g id="minder_node_3729" transform="matrix( 1 0 0 1 391 32 )"><g id="node_expander_58" transform="translate( -11 0 )" style="cursor: pointer;" display="none"><path id="kity_path_4224" fill="white" stroke="gray" d="M6,0A6,6,0,1,1,-6,0A6,6,0,1,1,6,0"></path><path id="kity_path_4225" fill="none" stroke="gray"></path></g><path id="node_outline_59" fill="transparent" stroke="none" d="M0,-9h313a5,5,0,0,1,5,5v8a5,5,0,0,1,-5,5h-313a5,5,0,0,1,-5,-5v-8a5,5,0,0,1,5,-5z" stroke-width="3"></path><g id="node_text_59" transform="translate( 0 -1.7999999999999998 )" fill="black" style="cursor: default;"><text id="kity_text_4144" text-rendering="inherit" dominant-baseline="text-before-edge" dy="0" font-size="12" y="-6">svn up /apps/data/web/working/ssl.yunhou.com/login</text></g></g><g id="minder_node_3727" transform="matrix( 1 0 0 1 344 6 )"><g id="node_expander_56" transform="translate( -11 0 )" style="cursor: pointer;" display="none"><path id="kity_path_4218" fill="white" stroke="gray" d="M6,0A6,6,0,1,1,-6,0A6,6,0,1,1,6,0"></path><path id="kity_path_4219" fill="none" stroke="gray"></path></g><path id="node_outline_57" fill="transparent" stroke="none" d="M0,-9h321a5,5,0,0,1,5,5v8a5,5,0,0,1,-5,5h-321a5,5,0,0,1,-5,-5v-8a5,5,0,0,1,5,-5z" stroke-width="3"></path><g id="node_text_57" transform="translate( 0 -1.7999999999999998 )" fill="black" style="cursor: default;"><text id="kity_text_4140" text-rendering="inherit" dominant-baseline="text-before-edge" dy="0" font-size="12" y="-6">svn up  /apps/data/web/working/s1.bbgstatic.com/login</text></g></g><g id="minder_node_3725" transform="matrix( 1 0 0 1 363 -20 )"><g id="node_expander_54" transform="translate( -11 0 )" style="cursor: pointer;" display="none"><path id="kity_path_4212" fill="white" stroke="gray" d="M6,0A6,6,0,1,1,-6,0A6,6,0,1,1,6,0"></path><path id="kity_path_4213" fill="none" stroke="gray"></path></g><path id="node_outline_55" fill="transparent" stroke="none" d="M0,-9h352a5,5,0,0,1,5,5v8a5,5,0,0,1,-5,5h-352a5,5,0,0,1,-5,-5v-8a5,5,0,0,1,5,-5z" stroke-width="3"></path><g id="node_text_55" transform="translate( 0 -1.7999999999999998 )" fill="black" style="cursor: default;"><text id="kity_text_4136" text-rendering="inherit" dominant-baseline="text-before-edge" dy="0" font-size="12" y="-6">release-static &lt;project-id&gt; (project-id:gshop,h5-login,static5)</text></g></g><g id="minder_node_3734" transform="matrix( 1 0 0 1 197 140 )"><g id="node_expander_64" transform="translate( -11 0 )" style="cursor: pointer;" display="none"><path id="kity_path_4242" fill="white" stroke="gray" d="M6,0A6,6,0,1,1,-6,0A6,6,0,1,1,6,0"></path><path id="kity_path_4243" fill="none" stroke="gray"></path></g><path id="node_outline_65" fill="transparent" stroke="none" d="M0,-9h315a5,5,0,0,1,5,5v8a5,5,0,0,1,-5,5h-315a5,5,0,0,1,-5,-5v-8a5,5,0,0,1,5,-5z" stroke-width="3"></path><g id="node_text_65" transform="translate( 0 -1.7999999999999998 )" fill="black" style="cursor: default;"><text id="kity_text_4156" text-rendering="inherit" dominant-baseline="text-before-edge" dy="0" font-size="12" y="-6">refresh-static-url -p &lt;project-id&gt; (project-id: gshop, ...)</text></g></g><g id="minder_node_3719" transform="matrix( 1 0 0 1 352 -114 )"><g id="node_expander_48" transform="translate( -11 0 )" style="cursor: pointer;" display="none"><path id="kity_path_4194" fill="white" stroke="gray" d="M6,0A6,6,0,1,1,-6,0A6,6,0,1,1,6,0"></path><path id="kity_path_4195" fill="none" stroke="gray"></path></g><path id="node_outline_49" fill="transparent" stroke="none" d="M0,-9h431a5,5,0,0,1,5,5v8a5,5,0,0,1,-5,5h-431a5,5,0,0,1,-5,-5v-8a5,5,0,0,1,5,-5z" stroke-width="3"></path><g id="node_text_49" transform="translate( 0 -1.7999999999999998 )" fill="black" style="cursor: default;"><text id="kity_text_4124" text-rendering="inherit" dominant-baseline="text-before-edge" dy="0" font-size="12" y="-6">/home/apps/build/build -e pro -m &lt;project_id&gt; &#xa0; (更新release分支和版本号)</text></g></g><g id="minder_node_3715" transform="matrix( 1 0 0 1 328 -166 )"><g id="node_expander_44" transform="translate( -11 0 )" style="cursor: pointer;" display="none"><path id="kity_path_4182" fill="white" stroke="gray" d="M6,0A6,6,0,1,1,-6,0A6,6,0,1,1,6,0"></path><path id="kity_path_4183" fill="none" stroke="gray"></path></g><path id="node_outline_45" fill="transparent" stroke="none" d="M0,-9h335a5,5,0,0,1,5,5v8a5,5,0,0,1,-5,5h-335a5,5,0,0,1,-5,-5v-8a5,5,0,0,1,5,-5z" stroke-width="3"></path><g id="node_text_45" transform="translate( 0 -1.7999999999999998 )" fill="black" style="cursor: default;"><text id="kity_text_4116" text-rendering="inherit" dominant-baseline="text-before-edge" dy="0" font-size="12" y="-6">git release (ps:在项目的当前目录下执行)   （更新release分支）</text></g></g></g></g></svg>
